<?xml version="1.0" standalone="no"?>
<!DOCTYPE svg PUBLIC "-//W3C//DTD SVG 20010904//EN"
        "http://www.w3.org/TR/2001/REC-SVG-20010904/DTD/svg10.dtd">
<svg version="1.0" xmlns="http://www.w3.org/2000/svg"
     width="700.000000pt" height="700.000000pt" viewBox="0 0 700.000000 700.000000"
     preserveAspectRatio="xMidYMid meet">
    <metadata>
        Created by potrace 1.11, written by Peter Selinger 2001-2013
    </metadata>
    <g transform="translate(0.000000,700.000000) scale(0.100000,-0.100000)"
       fill="#000000" stroke="none">
        <path d="M1244 6991 c-11 -5 -32 -23 -47 -40 l-26 -31 -1 -322 c0 -177 -2
-323 -3 -325 -2 -1 -129 -4 -283 -6 -270 -4 -282 -5 -360 -30 -166 -55 -303
-174 -378 -330 -24 -50 -50 -119 -56 -151 -14 -69 -20 -601 -8 -628 5 -10 5
-18 1 -18 -4 0 -7 -1018 -7 -2262 1 -1726 4 -2278 14 -2328 35 -189 170 -366
345 -450 155 -75 -109 -69 3070 -69 2593 -1 2867 1 2930 16 235 54 399 208
481 453 18 53 19 154 21 2645 2 2566 2 2591 -18 2664 -53 195 -168 336 -344
422 -117 57 -176 66 -422 65 -183 -1 -213 1 -214 14 -1 8 -3 148 -4 310 -3
367 0 334 -32 370 -36 39 -87 49 -136 25 -65 -30 -67 -45 -67 -395 1 -172 -1
-315 -4 -317 -6 -6 -4273 -6 -4283 0 -4 3 -7 142 -6 309 1 168 -3 317 -8 334
-5 17 -20 40 -32 52 -25 24 -92 36 -123 23z"/>
    </g>
</svg>
